<svg id="图层_1" data-name="图层 1" xmlns="http://www.w3.org/2000/svg" viewBox="0 0 1835.66 723.53">
    <defs>
        <style>
            .cls-1{stroke:#000;stroke-miterlimit:10;}.cls-2{fill:#5ce1e6;}.cls-3{fill:#e6e6e6;}.cls-4{font-size:71.18px;font-family:inpin-hongmengti,
            inpin hongmengti;letter-spacing:0.01em;}
        </style>
    </defs>
    <polygon class="cls-1"
             points="1716.46 584.34 1716.46 584.5 1676.13 607.79 1496.23 607.79 1455.29 584.15 1455.29 278.52 1455.73 278.26 1494.13 256.09 1677.13 256.09 1715.54 278.26 1716.34 278.73 1675.86 302.1 1501.63 302.1 1501.63 413.45 1676.88 413.45 1715.29 435.63 1716.09 436.09 1675.61 459.46 1501.63 459.46 1501.63 561.56 1677.02 561.56 1715.82 583.96 1716.46 584.34"/>
    <path class="cls-2"
          d="M6616,7497l14.38,14.49a334.88,334.88,0,0,1-36.51,5.5q-16.36,1.58-33.15,1.6a345.39,345.39,0,0,1-37.16-2l-24-24.38-29-29.42-86-87.33V7085.54L6382,7088l-24.6,24.41-62,61.58-55.18,54.77-.09.09L6224.85,7244a340.29,340.29,0,0,1-5.28-36c-.28-3.05-.52-6.13-.73-9.21v-45.75c.3-4.56.69-9.12,1.18-13.63l12.22-12.21,8.37-8.37,30.82-30.83,70.83-70.81,42.26-42.27,139.7-139.7a338.45,338.45,0,0,1,36.5-1.94,343.44,343.44,0,0,1,70.59,7.29l-15.8,15.66-15.71,15.6-85,84.36-16.44,16.32-27.81,27.59V7350.5l29.13,29.33,15.12,15.24,40.8,41.1,43.41,43.75,15.92,16Z"
          transform="translate(-6218.84 -6833.31)"/>
    <path class="cls-3"
          d="M6880.32,7023.84v238.27l-68.38,68.37-74.94,75-55.05,55-19.88-19.89-39.66-39.65-88.58-88.58V7091.28l84.85-84.21v9.49l-.11,77.7v6.3l-.22,167.56v18.65l59.12,59.12,77.75-77.77,56.75-56.75V6936.51a343.68,343.68,0,0,1,68.38,87.33Z"
          transform="translate(-6218.84 -6833.31)"/>
    <line class="cls-1" x1="802.91" y1="410.09" x2="802.91" y2="409.78"/>
    <line class="cls-1" x1="969.7" y1="410.09" x2="969.7" y2="409.85"/>
    <polygon class="cls-1"
             points="1106.29 361.2 1106.29 569.11 1104.51 572.04 1084.12 605.58 1083.05 607.34 1081.98 605.58 1062.42 573.41 1059.31 568.3 1059.31 363.37 1062 358.95 1083.46 323.65 1104.08 357.57 1106.29 361.2"/>
    <polygon class="cls-1" points="1106.69 266.09 1083.59 312.5 1083.57 312.46 1059.21 266.09 1106.69 266.09"/>
    <polygon class="cls-1"
             points="1410.28 256.09 1393.03 302.52 1302.65 302.52 1302.65 545.78 1279.74 607.45 1279.71 607.54 1255.93 543.71 1255.93 302.52 1166.08 302.52 1149 256.66 1149 256.09 1410.28 256.09"/>
    <polyline class="cls-1" points="1410.02 461.45 1410.09 461.45 1410.35 461.45"/>
    <text class="cls-4" transform="translate(630.66 705.81) scale(1.01 1)">TUNITE SERVER FEDERATION</text>
    <line class="cls-1" x1="770.16" y1="310.52" x2="770.35" y2="310.8"/>
    <polygon class="cls-1"
             points="1014.54 303.48 1014.54 559.31 966.17 607.68 934.04 558.82 803.41 360.12 803.41 607.57 755.16 559.31 755.16 303.41 761.79 296.81 803.29 255.5 804.77 255.5 836.68 304.38 966.28 502.91 966.28 255.5 966.35 255.5 1014.54 303.48"/>
</svg>