<svg id="图层_1" data-name="图层 1" xmlns="http://www.w3.org/2000/svg" viewBox="0 0 560 560">
    <defs>
        <style>
            .cls-1{fill:#6b6b6b;}.cls-2{fill:none;stroke:#000;stroke-miterlimit:10;}.cls-3{fill:#5ce1e6;}.cls-4{fill:#fff;}
        </style>
    </defs>
    <circle class="cls-1" cx="280" cy="280" r="280"/>
    <line class="cls-2" x1="392.12" y1="10.81" x2="391.62" y2="10.81"/>
    <line class="cls-3" x1="158.37" y1="191.31" x2="158.37" y2="190.81"/>
    <line class="cls-3" x1="158.37" y1="210.31" x2="156.7" y2="210.31"/>
    <line class="cls-2" x1="322.78" y1="492.91" x2="321.97" y2="492.09"/>
    <path class="cls-3"
          d="M7193.15,7342l9.57,9.64a223.15,223.15,0,0,1-24.29,3.66q-10.89,1.05-22.06,1.06a229.46,229.46,0,0,1-24.73-1.33l-16-16.22-19.29-19.58-57.25-58.11V7068.22l-1.67,1.66-16.37,16.24-41.28,41-36.72,36.44-.06.06-10.15,10.07a227,227,0,0,1-3.51-23.94c-.19-2-.35-4.08-.49-6.13v-30.44c.2-3,.46-6.07.79-9.07l8.13-8.13,5.57-5.57,20.51-20.51,47.13-47.12,28.12-28.13,93-93a229.68,229.68,0,0,1,71.26,3.56l-10.51,10.42L7182.37,6926l-56.56,56.14L7114.87,6993l-18.5,18.36v233.14l19.38,19.52,10.06,10.14,27.15,27.35,28.89,29.11,10.59,10.66Z"
          transform="translate(-6880.75 -6859.57)"/>
    <path class="cls-4"
          d="M7369,7027.16v158.55l-45.5,45.5-49.87,49.88L7237,7317.71l-13.23-13.23-26.39-26.39-58.94-58.94V7072l56.46-56v6.32l-.07,51.7v4.19l-.14,111.5v12.41l39.34,39.34,51.74-51.75,37.76-37.76v-182.9a228.93,228.93,0,0,1,45.5,58.11Z"
          transform="translate(-6880.75 -6859.57)"/>
</svg>